<mxfile host="app.diagrams.net" agent="Mozilla/5.0 (Windows NT 10.0; Win64; x64) AppleWebKit/537.36 (KHTML, like Gecko) Chrome/131.0.0.0 Safari/537.36" version="25.0.3">
  <diagram id="C5RBs43oDa-KdzZeNtuy" name="Page-1">
    <mxGraphModel dx="794" dy="446" grid="1" gridSize="10" guides="1" tooltips="1" connect="1" arrows="1" fold="1" page="1" pageScale="1" pageWidth="827" pageHeight="1169" math="0" shadow="0">
      <root>
        <mxCell id="WIyWlLk6GJQsqaUBKTNV-0" />
        <mxCell id="WIyWlLk6GJQsqaUBKTNV-1" parent="WIyWlLk6GJQsqaUBKTNV-0" />
        <mxCell id="dKazAt809gk_jQsjABky-11" value="" style="rounded=0;html=1;jettySize=auto;orthogonalLoop=1;fontSize=11;endArrow=block;endFill=0;endSize=8;strokeWidth=1;shadow=0;labelBackgroundColor=none;edgeStyle=orthogonalEdgeStyle;" parent="WIyWlLk6GJQsqaUBKTNV-1" source="dKazAt809gk_jQsjABky-12" target="dKazAt809gk_jQsjABky-15" edge="1">
          <mxGeometry relative="1" as="geometry" />
        </mxCell>
        <mxCell id="dKazAt809gk_jQsjABky-12" value="Read Config Data" style="rounded=1;whiteSpace=wrap;html=1;fontSize=12;glass=0;strokeWidth=1;shadow=0;" parent="WIyWlLk6GJQsqaUBKTNV-1" vertex="1">
          <mxGeometry x="790" y="80" width="120" height="40" as="geometry" />
        </mxCell>
        <mxCell id="dKazAt809gk_jQsjABky-13" value="Yes" style="rounded=0;html=1;jettySize=auto;orthogonalLoop=1;fontSize=11;endArrow=block;endFill=0;endSize=8;strokeWidth=1;shadow=0;labelBackgroundColor=none;edgeStyle=orthogonalEdgeStyle;" parent="WIyWlLk6GJQsqaUBKTNV-1" source="dKazAt809gk_jQsjABky-26" target="dKazAt809gk_jQsjABky-19" edge="1">
          <mxGeometry y="20" relative="1" as="geometry">
            <mxPoint as="offset" />
          </mxGeometry>
        </mxCell>
        <mxCell id="dKazAt809gk_jQsjABky-14" value="No" style="edgeStyle=orthogonalEdgeStyle;rounded=0;html=1;jettySize=auto;orthogonalLoop=1;fontSize=11;endArrow=block;endFill=0;endSize=8;strokeWidth=1;shadow=0;labelBackgroundColor=none;" parent="WIyWlLk6GJQsqaUBKTNV-1" source="dKazAt809gk_jQsjABky-15" target="dKazAt809gk_jQsjABky-16" edge="1">
          <mxGeometry y="10" relative="1" as="geometry">
            <mxPoint as="offset" />
          </mxGeometry>
        </mxCell>
        <mxCell id="dKazAt809gk_jQsjABky-15" value="Get the Function Name from silver_helpers.py" style="rhombus;whiteSpace=wrap;html=1;shadow=0;fontFamily=Helvetica;fontSize=12;align=center;strokeWidth=1;spacing=6;spacingTop=-4;" parent="WIyWlLk6GJQsqaUBKTNV-1" vertex="1">
          <mxGeometry x="790" y="170" width="120" height="80" as="geometry" />
        </mxCell>
        <mxCell id="dKazAt809gk_jQsjABky-16" value="Return an exception. Function is not available" style="rounded=1;whiteSpace=wrap;html=1;fontSize=12;glass=0;strokeWidth=1;shadow=0;" parent="WIyWlLk6GJQsqaUBKTNV-1" vertex="1">
          <mxGeometry x="950" y="190" width="120" height="40" as="geometry" />
        </mxCell>
        <mxCell id="dKazAt809gk_jQsjABky-17" value="Passed" style="rounded=0;html=1;jettySize=auto;orthogonalLoop=1;fontSize=11;endArrow=block;endFill=0;endSize=8;strokeWidth=1;shadow=0;labelBackgroundColor=none;edgeStyle=orthogonalEdgeStyle;" parent="WIyWlLk6GJQsqaUBKTNV-1" source="dKazAt809gk_jQsjABky-19" target="dKazAt809gk_jQsjABky-21" edge="1">
          <mxGeometry x="0.3333" y="20" relative="1" as="geometry">
            <mxPoint as="offset" />
          </mxGeometry>
        </mxCell>
        <mxCell id="dKazAt809gk_jQsjABky-18" value="Failed" style="edgeStyle=orthogonalEdgeStyle;rounded=0;html=1;jettySize=auto;orthogonalLoop=1;fontSize=11;endArrow=block;endFill=0;endSize=8;strokeWidth=1;shadow=0;labelBackgroundColor=none;" parent="WIyWlLk6GJQsqaUBKTNV-1" source="dKazAt809gk_jQsjABky-19" target="dKazAt809gk_jQsjABky-22" edge="1">
          <mxGeometry y="10" relative="1" as="geometry">
            <mxPoint as="offset" />
          </mxGeometry>
        </mxCell>
        <mxCell id="dKazAt809gk_jQsjABky-19" value="Constraint Check" style="rhombus;whiteSpace=wrap;html=1;shadow=0;fontFamily=Helvetica;fontSize=12;align=center;strokeWidth=1;spacing=6;spacingTop=-4;" parent="WIyWlLk6GJQsqaUBKTNV-1" vertex="1">
          <mxGeometry x="800" y="430" width="100" height="80" as="geometry" />
        </mxCell>
        <mxCell id="dKazAt809gk_jQsjABky-20" value="" style="edgeStyle=orthogonalEdgeStyle;rounded=0;orthogonalLoop=1;jettySize=auto;html=1;" parent="WIyWlLk6GJQsqaUBKTNV-1" source="dKazAt809gk_jQsjABky-21" target="dKazAt809gk_jQsjABky-27" edge="1">
          <mxGeometry relative="1" as="geometry" />
        </mxCell>
        <mxCell id="dKazAt809gk_jQsjABky-21" value="Partition the data as per partition key mentioned in config" style="rounded=1;whiteSpace=wrap;html=1;fontSize=12;glass=0;strokeWidth=1;shadow=0;" parent="WIyWlLk6GJQsqaUBKTNV-1" vertex="1">
          <mxGeometry x="790" y="680" width="120" height="40" as="geometry" />
        </mxCell>
        <mxCell id="dKazAt809gk_jQsjABky-22" value="Raise an Exception. validation Failed." style="rounded=1;whiteSpace=wrap;html=1;fontSize=12;glass=0;strokeWidth=1;shadow=0;" parent="WIyWlLk6GJQsqaUBKTNV-1" vertex="1">
          <mxGeometry x="1121" y="450" width="120" height="40" as="geometry" />
        </mxCell>
        <mxCell id="dKazAt809gk_jQsjABky-23" value="" style="rounded=0;whiteSpace=wrap;html=1;" parent="WIyWlLk6GJQsqaUBKTNV-1" vertex="1">
          <mxGeometry x="650" y="80" width="100" height="30" as="geometry" />
        </mxCell>
        <mxCell id="dKazAt809gk_jQsjABky-24" value="IO.py" style="text;html=1;align=center;verticalAlign=middle;whiteSpace=wrap;rounded=0;" parent="WIyWlLk6GJQsqaUBKTNV-1" vertex="1">
          <mxGeometry x="660" y="110" width="60" height="30" as="geometry" />
        </mxCell>
        <mxCell id="dKazAt809gk_jQsjABky-25" value="" style="rounded=0;html=1;jettySize=auto;orthogonalLoop=1;fontSize=11;endArrow=block;endFill=0;endSize=8;strokeWidth=1;shadow=0;labelBackgroundColor=none;edgeStyle=orthogonalEdgeStyle;" parent="WIyWlLk6GJQsqaUBKTNV-1" source="dKazAt809gk_jQsjABky-15" target="dKazAt809gk_jQsjABky-26" edge="1">
          <mxGeometry y="20" relative="1" as="geometry">
            <mxPoint as="offset" />
            <mxPoint x="850" y="250" as="sourcePoint" />
            <mxPoint x="850" y="290" as="targetPoint" />
          </mxGeometry>
        </mxCell>
        <mxCell id="dKazAt809gk_jQsjABky-26" value="Execute the SQL query" style="rounded=1;whiteSpace=wrap;html=1;" parent="WIyWlLk6GJQsqaUBKTNV-1" vertex="1">
          <mxGeometry x="790" y="280" width="120" height="30" as="geometry" />
        </mxCell>
        <mxCell id="dKazAt809gk_jQsjABky-27" value="Store the data in Silver Layer as per the table name mentioned in Config" style="rounded=1;whiteSpace=wrap;html=1;" parent="WIyWlLk6GJQsqaUBKTNV-1" vertex="1">
          <mxGeometry x="790" y="830" width="120" height="60" as="geometry" />
        </mxCell>
        <mxCell id="dKazAt809gk_jQsjABky-28" value="" style="rounded=0;whiteSpace=wrap;html=1;" parent="WIyWlLk6GJQsqaUBKTNV-1" vertex="1">
          <mxGeometry x="80" y="100" width="100" height="30" as="geometry" />
        </mxCell>
        <mxCell id="dKazAt809gk_jQsjABky-29" value="IO.py" style="text;html=1;align=center;verticalAlign=middle;whiteSpace=wrap;rounded=0;" parent="WIyWlLk6GJQsqaUBKTNV-1" vertex="1">
          <mxGeometry x="100" y="130" width="60" height="30" as="geometry" />
        </mxCell>
        <mxCell id="dKazAt809gk_jQsjABky-32" value="" style="edgeStyle=orthogonalEdgeStyle;rounded=0;orthogonalLoop=1;jettySize=auto;html=1;" parent="WIyWlLk6GJQsqaUBKTNV-1" source="dKazAt809gk_jQsjABky-30" target="dKazAt809gk_jQsjABky-31" edge="1">
          <mxGeometry relative="1" as="geometry" />
        </mxCell>
        <mxCell id="dKazAt809gk_jQsjABky-30" value="Read Config Data" style="rounded=1;whiteSpace=wrap;html=1;" parent="WIyWlLk6GJQsqaUBKTNV-1" vertex="1">
          <mxGeometry x="250" y="100" width="120" height="35" as="geometry" />
        </mxCell>
        <mxCell id="dKazAt809gk_jQsjABky-34" value="" style="edgeStyle=orthogonalEdgeStyle;rounded=0;orthogonalLoop=1;jettySize=auto;html=1;" parent="WIyWlLk6GJQsqaUBKTNV-1" source="dKazAt809gk_jQsjABky-31" target="dKazAt809gk_jQsjABky-33" edge="1">
          <mxGeometry relative="1" as="geometry" />
        </mxCell>
        <mxCell id="dKazAt809gk_jQsjABky-37" style="edgeStyle=orthogonalEdgeStyle;rounded=0;orthogonalLoop=1;jettySize=auto;html=1;exitX=0.5;exitY=1;exitDx=0;exitDy=0;entryX=0.5;entryY=0;entryDx=0;entryDy=0;" parent="WIyWlLk6GJQsqaUBKTNV-1" source="dKazAt809gk_jQsjABky-31" edge="1">
          <mxGeometry relative="1" as="geometry">
            <mxPoint x="310" y="330" as="targetPoint" />
          </mxGeometry>
        </mxCell>
        <mxCell id="dKazAt809gk_jQsjABky-31" value="Landing Layer File Metadata Available" style="rhombus;whiteSpace=wrap;html=1;" parent="WIyWlLk6GJQsqaUBKTNV-1" vertex="1">
          <mxGeometry x="270" y="190" width="80" height="80" as="geometry" />
        </mxCell>
        <mxCell id="dKazAt809gk_jQsjABky-33" value="Return an exception Landing File Information Not available" style="rounded=1;whiteSpace=wrap;html=1;" parent="WIyWlLk6GJQsqaUBKTNV-1" vertex="1">
          <mxGeometry x="460" y="200" width="120" height="60" as="geometry" />
        </mxCell>
        <mxCell id="dKazAt809gk_jQsjABky-35" value="No" style="text;html=1;align=center;verticalAlign=middle;resizable=0;points=[];autosize=1;strokeColor=none;fillColor=none;" parent="WIyWlLk6GJQsqaUBKTNV-1" vertex="1">
          <mxGeometry x="370" y="198" width="40" height="30" as="geometry" />
        </mxCell>
        <mxCell id="dKazAt809gk_jQsjABky-41" value="" style="edgeStyle=orthogonalEdgeStyle;rounded=0;orthogonalLoop=1;jettySize=auto;html=1;" parent="WIyWlLk6GJQsqaUBKTNV-1" source="dKazAt809gk_jQsjABky-38" edge="1">
          <mxGeometry relative="1" as="geometry">
            <mxPoint x="460" y="370" as="targetPoint" />
          </mxGeometry>
        </mxCell>
        <mxCell id="dKazAt809gk_jQsjABky-44" value="" style="edgeStyle=orthogonalEdgeStyle;rounded=0;orthogonalLoop=1;jettySize=auto;html=1;" parent="WIyWlLk6GJQsqaUBKTNV-1" source="dKazAt809gk_jQsjABky-38" edge="1">
          <mxGeometry relative="1" as="geometry">
            <mxPoint x="310" y="460" as="targetPoint" />
          </mxGeometry>
        </mxCell>
        <mxCell id="dKazAt809gk_jQsjABky-38" value="Check File Content" style="rhombus;whiteSpace=wrap;html=1;" parent="WIyWlLk6GJQsqaUBKTNV-1" vertex="1">
          <mxGeometry x="270" y="330" width="80" height="80" as="geometry" />
        </mxCell>
        <mxCell id="dKazAt809gk_jQsjABky-39" value="Raise Exception. Data not found." style="rounded=1;whiteSpace=wrap;html=1;" parent="WIyWlLk6GJQsqaUBKTNV-1" vertex="1">
          <mxGeometry x="470" y="340" width="120" height="60" as="geometry" />
        </mxCell>
        <mxCell id="dKazAt809gk_jQsjABky-42" value="Not Found" style="text;html=1;align=center;verticalAlign=middle;resizable=0;points=[];autosize=1;strokeColor=none;fillColor=none;" parent="WIyWlLk6GJQsqaUBKTNV-1" vertex="1">
          <mxGeometry x="360" y="330" width="80" height="30" as="geometry" />
        </mxCell>
        <mxCell id="dKazAt809gk_jQsjABky-49" value="" style="edgeStyle=orthogonalEdgeStyle;rounded=0;orthogonalLoop=1;jettySize=auto;html=1;" parent="WIyWlLk6GJQsqaUBKTNV-1" source="dKazAt809gk_jQsjABky-45" target="dKazAt809gk_jQsjABky-48" edge="1">
          <mxGeometry relative="1" as="geometry" />
        </mxCell>
        <mxCell id="dKazAt809gk_jQsjABky-45" value="Iterate Columns" style="rounded=1;whiteSpace=wrap;html=1;" parent="WIyWlLk6GJQsqaUBKTNV-1" vertex="1">
          <mxGeometry x="250" y="470" width="120" height="60" as="geometry" />
        </mxCell>
        <mxCell id="dKazAt809gk_jQsjABky-47" value="Found" style="text;html=1;align=center;verticalAlign=middle;whiteSpace=wrap;rounded=0;" parent="WIyWlLk6GJQsqaUBKTNV-1" vertex="1">
          <mxGeometry x="330" y="420" width="60" height="30" as="geometry" />
        </mxCell>
        <mxCell id="dKazAt809gk_jQsjABky-57" value="" style="edgeStyle=orthogonalEdgeStyle;rounded=0;orthogonalLoop=1;jettySize=auto;html=1;" parent="WIyWlLk6GJQsqaUBKTNV-1" source="dKazAt809gk_jQsjABky-48" target="dKazAt809gk_jQsjABky-50" edge="1">
          <mxGeometry relative="1" as="geometry" />
        </mxCell>
        <mxCell id="dKazAt809gk_jQsjABky-48" value="Set Column Name, Data type, Create Constraints" style="rounded=1;whiteSpace=wrap;html=1;" parent="WIyWlLk6GJQsqaUBKTNV-1" vertex="1">
          <mxGeometry x="580" y="470" width="120" height="60" as="geometry" />
        </mxCell>
        <mxCell id="dKazAt809gk_jQsjABky-52" style="edgeStyle=orthogonalEdgeStyle;rounded=0;orthogonalLoop=1;jettySize=auto;html=1;" parent="WIyWlLk6GJQsqaUBKTNV-1" source="dKazAt809gk_jQsjABky-50" edge="1">
          <mxGeometry relative="1" as="geometry">
            <mxPoint x="380" y="635" as="targetPoint" />
          </mxGeometry>
        </mxCell>
        <mxCell id="dKazAt809gk_jQsjABky-50" value="More Columns Available" style="rhombus;whiteSpace=wrap;html=1;" parent="WIyWlLk6GJQsqaUBKTNV-1" vertex="1">
          <mxGeometry x="600" y="595" width="80" height="80" as="geometry" />
        </mxCell>
        <mxCell id="dKazAt809gk_jQsjABky-55" value="" style="edgeStyle=orthogonalEdgeStyle;rounded=0;orthogonalLoop=1;jettySize=auto;html=1;" parent="WIyWlLk6GJQsqaUBKTNV-1" source="dKazAt809gk_jQsjABky-51" target="dKazAt809gk_jQsjABky-54" edge="1">
          <mxGeometry relative="1" as="geometry" />
        </mxCell>
        <mxCell id="dKazAt809gk_jQsjABky-51" value="Set Partition Key and Primary Key" style="rounded=1;whiteSpace=wrap;html=1;" parent="WIyWlLk6GJQsqaUBKTNV-1" vertex="1">
          <mxGeometry x="250" y="605" width="120" height="60" as="geometry" />
        </mxCell>
        <mxCell id="dKazAt809gk_jQsjABky-53" value="No" style="text;html=1;align=center;verticalAlign=middle;whiteSpace=wrap;rounded=0;" parent="WIyWlLk6GJQsqaUBKTNV-1" vertex="1">
          <mxGeometry x="490" y="650" width="60" height="30" as="geometry" />
        </mxCell>
        <mxCell id="dKazAt809gk_jQsjABky-60" value="" style="edgeStyle=orthogonalEdgeStyle;rounded=0;orthogonalLoop=1;jettySize=auto;html=1;" parent="WIyWlLk6GJQsqaUBKTNV-1" source="dKazAt809gk_jQsjABky-54" target="dKazAt809gk_jQsjABky-59" edge="1">
          <mxGeometry relative="1" as="geometry" />
        </mxCell>
        <mxCell id="dKazAt809gk_jQsjABky-54" value="Create Table in Bronze Layer&amp;nbsp;" style="rounded=1;whiteSpace=wrap;html=1;" parent="WIyWlLk6GJQsqaUBKTNV-1" vertex="1">
          <mxGeometry x="250" y="750" width="120" height="60" as="geometry" />
        </mxCell>
        <mxCell id="dKazAt809gk_jQsjABky-56" value="" style="endArrow=classic;html=1;rounded=0;exitX=0.167;exitY=0.329;exitDx=0;exitDy=0;exitPerimeter=0;" parent="WIyWlLk6GJQsqaUBKTNV-1" source="dKazAt809gk_jQsjABky-50" edge="1">
          <mxGeometry width="50" height="50" relative="1" as="geometry">
            <mxPoint x="580" y="620" as="sourcePoint" />
            <mxPoint x="380" y="530" as="targetPoint" />
          </mxGeometry>
        </mxCell>
        <mxCell id="dKazAt809gk_jQsjABky-58" value="Yes" style="text;html=1;align=center;verticalAlign=middle;whiteSpace=wrap;rounded=0;" parent="WIyWlLk6GJQsqaUBKTNV-1" vertex="1">
          <mxGeometry x="520" y="560" width="60" height="30" as="geometry" />
        </mxCell>
        <mxCell id="dKazAt809gk_jQsjABky-62" style="edgeStyle=orthogonalEdgeStyle;rounded=0;orthogonalLoop=1;jettySize=auto;html=1;entryX=0;entryY=0.5;entryDx=0;entryDy=0;" parent="WIyWlLk6GJQsqaUBKTNV-1" source="dKazAt809gk_jQsjABky-59" target="dKazAt809gk_jQsjABky-61" edge="1">
          <mxGeometry relative="1" as="geometry" />
        </mxCell>
        <mxCell id="dKazAt809gk_jQsjABky-65" value="" style="edgeStyle=orthogonalEdgeStyle;rounded=0;orthogonalLoop=1;jettySize=auto;html=1;" parent="WIyWlLk6GJQsqaUBKTNV-1" source="dKazAt809gk_jQsjABky-59" target="dKazAt809gk_jQsjABky-64" edge="1">
          <mxGeometry relative="1" as="geometry" />
        </mxCell>
        <mxCell id="dKazAt809gk_jQsjABky-59" value="Get the function name from Bronze_helpers.py" style="rhombus;whiteSpace=wrap;html=1;" parent="WIyWlLk6GJQsqaUBKTNV-1" vertex="1">
          <mxGeometry x="270" y="890" width="80" height="110" as="geometry" />
        </mxCell>
        <mxCell id="dKazAt809gk_jQsjABky-61" value="Return an exception. Function not available." style="rounded=1;whiteSpace=wrap;html=1;" parent="WIyWlLk6GJQsqaUBKTNV-1" vertex="1">
          <mxGeometry x="490" y="915" width="120" height="60" as="geometry" />
        </mxCell>
        <mxCell id="dKazAt809gk_jQsjABky-63" value="No" style="text;html=1;align=center;verticalAlign=middle;whiteSpace=wrap;rounded=0;" parent="WIyWlLk6GJQsqaUBKTNV-1" vertex="1">
          <mxGeometry x="380" y="915" width="60" height="30" as="geometry" />
        </mxCell>
        <mxCell id="dKazAt809gk_jQsjABky-64" value="Execute the SQL Query and Load Data in the Bronze Tables." style="rounded=1;whiteSpace=wrap;html=1;" parent="WIyWlLk6GJQsqaUBKTNV-1" vertex="1">
          <mxGeometry x="250" y="1060" width="120" height="60" as="geometry" />
        </mxCell>
        <mxCell id="dKazAt809gk_jQsjABky-66" value="Yes" style="text;html=1;align=center;verticalAlign=middle;whiteSpace=wrap;rounded=0;" parent="WIyWlLk6GJQsqaUBKTNV-1" vertex="1">
          <mxGeometry x="310" y="280" width="60" height="30" as="geometry" />
        </mxCell>
      </root>
    </mxGraphModel>
  </diagram>
</mxfile>
